<svg xmlns="http://www.w3.org/2000/svg" viewBox="0 0 728 320.57"><defs><style>.cls-1{fill:#fff;}</style></defs><g id="Layer_2" data-name="Layer 2"><g id="Layer_1-2" data-name="Layer 1"><path class="cls-1" d="M0,0H728V320.57H0ZM286.85,46.53c-1-.24-1.44-.22-1.63-.41a28,28,0,0,1-2.68-3c-9.7-13.62-22.18-22-39.49-17.82C227.4,29.08,219.06,40,214,55.36c-2.76,8.28-9.65,18.82-17,21.18C183.15,81,169,87,153.18,84.35A45.15,45.15,0,0,0,114,96.14c-7,6.44-12.72,14.15-19.4,21.73-3.9-.83-8.53-2.19-13.25-2.72A97.54,97.54,0,0,0,67,114.86c-46.38,1.72-70.1,37.25-53.23,79.8,5.78,14.55,11.78,29,17.87,43.43,8.35,19.78,24.93,29,46.27,26.22,22.49-2.92,40.47-14.74,56.8-29.22,5.84-5.16,10.89-5.59,15.87-2.27,1.35,7.42,1.83,16.41,6.53,20.22,10.52,8.54,11.24,17.5,6.93,28.69a35.17,35.17,0,0,0-1.63,7c-2.54,15.66,8.46,26.1,24,22.6,7.7-1.74,15.27-4,22.9-6.07,88.92-23.78,178.63-30.07,269.31-11.36,21.18,4.36,42.33,9.16,63.06,15.2,15.77,4.6,30.58-8.68,25.23-24.81a73.69,73.69,0,0,1-3.72-16c-.27-2.88.82-7,2.87-8.8,8.11-7,14.71-14.4,11.53-27.15,6.29,0,11.87,1.39,16.32-.25,15-5.56,24.36,1,35.25,10.85,14.61,13.23,33.7,16.63,52,8,18.62-8.77,29.37-24.16,29.18-45.8,0-3.18,1.39-6.51,2.67-9.55,5.75-13.76,10.58-27.52,5.32-42.69C706.49,118.84,674.85,100.14,639,106c-2.38.4-6,.29-7.32-1.15-7.11-7.78-13.69-16.06-21.6-25.54,5.35-14,2.55-29.56-12.64-41.53-15.84-12.48-31.83-9.43-47,1.28-16.28-12.55-26.18-12-40.17,1.23-1.77,1.68-5.25,3-7.53,2.5-11.53-2.39-20,1.55-26.83,10.73-7.27,9.85-17.14,2.11-25.71,2.88-1.87.17-4.71-5.32-6.32-8.58-2.57-5.2-4-11-6.77-16.07C424.67,8.44,396.31,6.06,383.75,24.1c-6,8.58-9.26,19-14.28,29.73H349.09c-.07-20.66-17.4-29.15-33.48-32.68C295.32,16.68,291.59,32.84,286.85,46.53Z"/><path d="M286.85,46.53c4.74-13.69,8.47-29.85,28.76-25.38,16.08,3.53,33.41,12,33.48,32.68h20.38c5-10.71,8.31-21.15,14.28-29.73,12.56-18,40.92-15.66,53.39,7.68,2.73,5.11,4.2,10.87,6.77,16.07,1.61,3.26,4.45,8.75,6.32,8.58,8.57-.77,18.44,7,25.71-2.88,6.8-9.18,15.3-13.12,26.83-10.73,2.28.47,5.76-.82,7.53-2.5,14-13.25,23.89-13.78,40.17-1.23,15.13-10.71,31.12-13.76,47-1.28,15.19,12,18,27.52,12.64,41.53,7.91,9.48,14.49,17.76,21.6,25.54,1.32,1.44,4.94,1.55,7.32,1.15,35.86-5.89,67.5,12.81,79.31,46.92,5.26,15.17.43,28.93-5.32,42.69-1.28,3-2.7,6.37-2.67,9.55.19,21.64-10.56,37-29.18,45.8-18.3,8.61-37.39,5.21-52-8-10.89-9.86-20.25-16.41-35.25-10.85-4.45,1.64-10,.25-16.32.25,3.18,12.75-3.42,20.12-11.53,27.15-2,1.78-3.14,5.92-2.87,8.8a73.69,73.69,0,0,0,3.72,16c5.35,16.13-9.46,29.41-25.23,24.81-20.73-6-41.88-10.84-63.06-15.2-90.68-18.71-180.39-12.42-269.31,11.36-7.63,2-15.2,4.33-22.9,6.07-15.55,3.5-26.55-6.94-24-22.6a35.17,35.17,0,0,1,1.63-7c4.31-11.19,3.59-20.15-6.93-28.69-4.7-3.81-5.18-12.8-6.53-20.22-5-3.32-10-2.89-15.87,2.27-16.33,14.48-34.31,26.3-56.8,29.22C56.53,267.09,40,257.87,31.6,238.09c-6.09-14.42-12.09-28.88-17.87-43.43-16.87-42.55,6.85-78.08,53.23-79.8a97.54,97.54,0,0,1,14.41.29c4.72.53,9.35,1.89,13.25,2.72,6.68-7.58,12.45-15.29,19.4-21.73a45.15,45.15,0,0,1,39.16-11.79C169,87,183.15,81,197,76.54c7.35-2.36,14.24-12.9,17-21.18C219.06,40,227.4,29.08,243.05,25.3c17.31-4.18,29.79,4.2,39.49,17.82a28,28,0,0,0,2.68,3C285.41,46.31,285.84,46.29,286.85,46.53ZM162.18,225.13c-3.13,8.71-11,18.62-.83,25.24,14.12,9.17,12.32,20,8.17,32.62a45.14,45.14,0,0,0-2.06,9c-1,8.76,5.74,15.41,14.46,14.18,3.71-.52,7.3-1.89,10.94-2.91,81.87-23.07,165-33.68,249.7-21.09,33.88,5,67.24,13.64,100.76,20.92,13.63,3,20.92-3.76,17.69-17.15-1.36-5.66-2.51-11.41-4.46-16.86-2-5.71-.63-9.33,4-13.21,14.48-12,14.41-12.79,6.24-30.12a34.8,34.8,0,0,1-1.39-4c8.77,1.64,17.06,4.52,25.28,4.36s16.42-3.35,25.14-5.33c1.59,2.31,3.56,5.52,5.87,8.45,12.81,16.22,36.6,23.83,54.47,17.53C693.7,240.63,703.92,224,704,202.22c0-2.75,1.79-5.53,2.88-8.24,5.27-13,9.95-25.43,5.56-40.51-9.31-32-49.68-52.34-78.95-39.76l-33.36-29c9.21-16.06,7.72-31.42-5-42.08-12.91-10.82-27.5-9.54-42.13,2-9.65-3.29-18.09-9-25.54-7.9s-13.72,9-21.2,14.4c-13.57-7.34-19.09-5.3-30,12.77-6-.28-12.19-1.15-18.3-.72-11.69.81-19.82-1.94-20.78-15.51-.27-3.91-2.66-7.72-4.3-11.49-5.35-12.32-15-18.73-27.18-18.12-11.37.58-21,7.76-24.59,20.11-2.06,7-2.1,14.58-3,21.74-13.24,3.21-31.29-8.41-38.62,13.59l-5.07-9.78c12.9-13.58,10.07-25.9-7.5-33a121.05,121.05,0,0,0-11.66-4.08c-8.91-2.54-15.54.76-18.89,9.45-3.72,9.67-7.15,19.46-10.91,29.11-.62,1.59-2.26,2.79-4.52,5.45,0-3.8,0-5.74,0-7.68.33-17.88-10.7-31.24-27.12-32.85-17.17-1.68-30.71,9.31-33.91,27.23a17,17,0,0,1-3.25,6.68c-3.3,4.5-6.91,8.77-10.42,13.12-1.36,1.68-2.65,4.61-4.2,4.76-17.06,1.68-32.42,11.33-50.84,8-19.3-3.47-38.41,8.77-48,27.11-1.54,3-2.9,6-4.49,9.3-18.78-8.76-37.07-7.7-55.27-.06C15.54,138.08,6.29,158.68,16.9,186.88,23.11,203.42,30.2,219.63,37,236c7.1,17.16,20.92,25,39.38,22.5a82.79,82.79,0,0,0,45.28-20.67C133.39,227.11,145.39,221.42,162.18,225.13Z"/><path class="cls-1" d="M162.18,225.13c-16.79-3.71-28.79,2-40.56,12.66a82.79,82.79,0,0,1-45.28,20.67C57.88,260.91,44.06,253.12,37,236c-6.76-16.33-13.85-32.54-20.06-49.08-10.61-28.2-1.36-48.8,26.55-60.53,18.2-7.64,36.49-8.7,55.27.06,1.59-3.31,3-6.35,4.49-9.3,9.57-18.34,28.68-30.58,48-27.11C169.61,93.32,185,83.67,202,82c1.55-.15,2.84-3.08,4.2-4.76,3.51-4.35,7.12-8.62,10.42-13.12a17,17,0,0,0,3.25-6.68c3.2-17.92,16.74-28.91,33.91-27.23,16.42,1.61,27.45,15,27.12,32.85,0,1.94,0,3.88,0,7.68,2.26-2.66,3.9-3.86,4.52-5.45,3.76-9.65,7.19-19.44,10.91-29.11,3.35-8.69,10-12,18.89-9.45a121.05,121.05,0,0,1,11.66,4.08c17.57,7.07,20.4,19.39,7.5,33l5.07,9.78c7.33-22,25.38-10.38,38.62-13.59.92-7.16,1-14.74,3-21.74,3.63-12.35,13.22-19.53,24.59-20.11,12.14-.61,21.83,5.8,27.18,18.12,1.64,3.77,4,7.58,4.3,11.49,1,13.57,9.09,16.32,20.78,15.51,6.11-.43,12.31.44,18.3.72,10.88-18.07,16.4-20.11,30-12.77,7.48-5.41,13.84-13.32,21.2-14.4s15.89,4.61,25.54,7.9c14.63-11.55,29.22-12.83,42.13-2,12.71,10.66,14.2,26,5,42.08l33.36,29c29.27-12.58,69.64,7.75,78.95,39.76,4.39,15.08-.29,27.48-5.56,40.51-1.09,2.71-2.87,5.49-2.88,8.24-.05,21.74-10.27,38.41-27.78,44.58-17.87,6.3-41.66-1.31-54.47-17.53-2.31-2.93-4.28-6.14-5.87-8.45-8.72,2-16.9,5.17-25.14,5.33s-16.51-2.72-25.28-4.36a34.8,34.8,0,0,0,1.39,4c8.17,17.33,8.24,18.09-6.24,30.12-4.66,3.88-6.08,7.5-4,13.21,2,5.45,3.1,11.2,4.46,16.86,3.23,13.39-4.06,20.11-17.69,17.15-33.52-7.28-66.88-15.89-100.76-20.92-84.72-12.59-167.83-2-249.7,21.09-3.64,1-7.23,2.39-10.94,2.91-8.72,1.23-15.44-5.42-14.46-14.18a45.14,45.14,0,0,1,2.06-9c4.15-12.58,5.95-23.45-8.17-32.62C151.15,243.75,159.05,233.84,162.18,225.13Zm-101-46.79,1.16,1c-1.16,2.14-2.17,4.37-3.5,6.4-4.43,6.75-11.38,12.9-13,20.24-4.59,20.56,9.2,30.76,32.19,26,18.68-3.84,32.94-15.88,47.13-27.58l-9.85-30.29c18.35,25,35.49,31.48,56.33,20.87,16.3-8.3,23.53-28.6,16.44-46.94-4.54,1.19-9.1,2.63-13.77,3.55-8.45,1.67-16.11,3.41-13.64,15.23.4,1.93-3.44,6.33-5.88,6.83s-7-1.55-8.46-3.85c-6.18-9.76-13.28-19.5-11.79-32,.66-5.54-3.16-13.73,5.61-15.47s10,6.41,12.52,12.2c.25.56,1,.92,2.06,1.93l23.53-6.84C171.35,101,145.57,92,126,111.46c-7.18,7.14-11,18.47-14.11,28.56-2.11,6.8-.4,14.79-.4,21.11-17.69-31-39.42-37.62-68.39-19.76-18,11.09-21.17,28.67-8.42,47.51,4.38-1.75,8.82-3.54,13.27-5.31Zm509-93.16c15.18,1.72,24.2-3.85,26.69-15.73,1.84-8.79-4.25-19.05-13-21.9C573.05,44,564.75,49,558,61.64c-2.17,4.06-6.68,6.88-11.18,11.29-.63-15.38-6.18-26.26-12.94-24.85-4.3.9-7.45,7.27-11.11,11.19l1.52.87-20.42,9.5-4.51-10.23c-11.37,3.8-4,11.94-4.51,17.8l-63-3.63v27.78h22.37c-3.64,24.61-7.09,48-10.59,71.63l35.87,2.7c1.39-22.06,3.09-42.47,3.76-62.92.27-8.08,3.14-9.92,10.58-8.91,5.83.79,11.86.16,19.34.16,3,8.25,6.86,18.36,10.43,28.55a9.14,9.14,0,0,1-.31,5c-1.78,6.37-4.14,12.61-5.56,19.06-1.85,8.43-6.39,10.44-13.77,5.44-1.56-1.06-3.08-2.16-5.21-3.66-3.07,6.76-11.54,11.72-4.22,18.46l16.75-7,1.81,3.09c-1.79,3.19-3.74,6.29-5.31,9.59a48.1,48.1,0,0,0-2.58,7.56c-1.74,6.22-3.36,12.46-5,18.7l-3.06-.54c1,3.59,2,7.18,3.14,11.29-55.66-10.43-110.51-16.18-166-12.19-6.29.46-9.48-1.36-10.85-7.5C321,189.31,317,179,315.87,168.35c-1.69-16-19.29-27.24-13.26-45.32a2.15,2.15,0,0,0-.83-1.78c-7.47-5.44-2.34-9.36,2.2-15.31,6.06,14.42,11.95,27.34,17,40.59,9.58,25.33,9.39,25.59,36.57,24.08,2.73-.15,6.95-3.83,7.57-6.53,6.17-27.2,11.74-54.53,17.46-81.83.59-2.84,1-5.71,1.69-9.34H355.94l-8.07,56.42-3.31,0c-2.9-11.82-6.22-23.56-8.61-35.48-3.07-15.27-6.09-18.85-18.86-20.66-.28-6.07-2.85-13.51-.19-17.36s10.58-4.52,19.39-7.72L311.67,36.28c-1.83,6.57-2.7,11.88-4.78,16.66-4.28,9.82-8.64,19.7-14.08,28.9-3.69,6.25-8.39,14.82-14.19,16.3-10.16,2.58-20.28-1.39-28.65-9.78-7.31-7.33-15.78-14.93-29.19-11.51,2.08,15-8.44,16.63-19.56,18.4-8.61,1.37-17,4.06-25.73,6.23,1.53,8.28,2.82,15.2,4.3,23.18l22.87-6.57c2.78,22.15,5.44,43.24,8.23,65.42l31.16-6.12c-3.48-22.61-6.67-43.38-10-65.1,7.13-.92,12.48-2,17.85-2.21,7.43-.29,20.58,9.47,20.26,14.81-.46,7.53-1.36,15-1.95,22.55-1.4,17.52-3.58,35-3.73,52.57-.09,9.78-3.48,14.51-12.57,16.15-3,.55-6.07,1.14-9.07,1.84-22.84,5.35-45.67,10.73-70.73,16.63,7.2,5.74,11.91,10,17.15,13.54,7.47,5,8.67,11.12,5.48,19.14-1.77,4.45-2.41,9.35-3.94,15.59,118.44-34.39,235-34.12,355.18.62-13.47-23.63-7-38.4,16.84-47.89-15.66-4.28-27.83-7.69-40.06-10.9-11.87-3.12-17.29-20.73-7.06-27.51,9.48-6.3,9.16-22.73,24.46-22.22,1.17,0,2.57-3.73,3.68-5.82,1.86-3.49,3.58-7.05,6.48-12.83.38,15.68,2.83,27.26,15.17,35.55,10.26,6.89,20.24,12.06,32.17,7.17,12.8-5.25,18.72-16.52,21.13-29.48.4-2.15-1.9-6.53-3.75-7.05-7.84-2.2-16-4.51-24-4.32-3.56.08-7,6-11.07,9.83-1.21-2.55-2.77-4.77-3.32-7.21-2.56-11.35,3.21-17,14.44-14.42,8.24,1.92,16.47,3.92,27,6.44,1.76-9.56,5.74-18.91,4.58-27.58-1.95-14.52-12.85-23-26.95-26.34-13.64-3.17-23.72,3.39-30.15,14.6-5.79,10.11-9.9,21.18-14.75,31.82a20.65,20.65,0,0,1-2.3-11.87c.43-4.17,3.61-8.59,2.76-12.24-1.58-6.77.53-10.25,5.47-14.75C562.8,101,572.55,97,570.23,85.18Zm85.56,115.94c-5.33-6.09-.74-16.45-10.95-18.72-7-1.56-13.46-5.45-20.18-8.31-10,26.08,6.86,43.27,28.66,48.79a29.28,29.28,0,0,0,15.1-.31c12.4-3.82,18.52-13.68,20.76-25.74,1.82-9.76-5.68-14.42-12.34-19.33s-12.59-10.68-19.61-14.8c-6.64-3.91-6.38-9.36-4.75-14.79.83-2.74,5.64-6.9,7-6.36,3.18,1.32,6.73,4.66,7.59,7.86,1,3.59-.85,7.92-1.59,12.74L692.13,174c11.54-21,11.37-28.49-7.34-40.94-8.4-5.59-19.45-8.44-29.67-9.82-12.73-1.71-20.32,4.76-23.74,16.44-5.13,17.53-3.27,24.64,8.6,32.13,4.34,2.73,8.86,5.19,13.31,7.74C663.69,185.52,664.39,189.47,655.79,201.12ZM421.5,76.48l-28.16-2.56q-1.6,48-3.21,95.79H421.5ZM271.87,60.28c.26-10.46-8.81-19.54-19.65-19.66A19.25,19.25,0,0,0,232.47,60,19.87,19.87,0,0,0,252,79.83C262.41,80,271.61,71,271.87,60.28Zm135.57,6.09c10.8.65,17.12-6.89,17.49-20.84.19-7.35-6.39-14.44-13.88-15-9.67-.67-16.76,6.89-17.33,18.49C393.14,61.05,396.84,65.73,407.44,66.37Z"/><path d="M570.23,85.18C572.55,97,562.8,101,556.75,106.5c-4.94,4.5-7,8-5.47,14.75.85,3.65-2.33,8.07-2.76,12.24a20.65,20.65,0,0,0,2.3,11.87c4.85-10.64,9-21.71,14.75-31.82,6.43-11.21,16.51-17.77,30.15-14.6,14.1,3.29,25,11.82,26.95,26.34,1.16,8.67-2.82,18-4.58,27.58-10.56-2.52-18.79-4.52-27-6.44-11.23-2.61-17,3.07-14.44,14.42.55,2.44,2.11,4.66,3.32,7.21,4.09-3.84,7.51-9.75,11.07-9.83,8-.19,16.17,2.12,24,4.32,1.85.52,4.15,4.9,3.75,7.05-2.41,13-8.33,24.23-21.13,29.48-11.93,4.89-21.91-.28-32.17-7.17-12.34-8.29-14.79-19.87-15.17-35.55-2.9,5.78-4.62,9.34-6.48,12.83-1.11,2.09-2.51,5.86-3.68,5.82-15.3-.51-15,15.92-24.46,22.22-10.23,6.78-4.81,24.39,7.06,27.51,12.23,3.21,24.4,6.62,40.06,10.9-23.86,9.49-30.31,24.26-16.84,47.89-120.16-34.74-236.74-35-355.18-.62,1.53-6.24,2.17-11.14,3.94-15.59,3.19-8,2-14.14-5.48-19.14-5.24-3.51-10-7.8-17.15-13.54,25.06-5.9,47.89-11.28,70.73-16.63,3-.7,6-1.29,9.07-1.84,9.09-1.64,12.48-6.37,12.57-16.15.15-17.54,2.33-35,3.73-52.57.59-7.52,1.49-15,1.95-22.55.32-5.34-12.83-15.1-20.26-14.81-5.37.21-10.72,1.29-17.85,2.21,3.35,21.72,6.54,42.49,10,65.1l-31.16,6.12c-2.79-22.18-5.45-43.27-8.23-65.42l-22.87,6.57c-1.48-8-2.77-14.9-4.3-23.18,8.72-2.17,17.12-4.86,25.73-6.23,11.12-1.77,21.64-3.36,19.56-18.4C234.19,73.43,242.66,81,250,88.36c8.37,8.39,18.49,12.36,28.65,9.78,5.8-1.48,10.5-10,14.19-16.3,5.44-9.2,9.8-19.08,14.08-28.9,2.08-4.78,2.95-10.09,4.78-16.66l24.62,11.87c-8.81,3.2-16.64,3.72-19.39,7.72s-.09,11.29.19,17.36C329.86,75,332.88,78.62,336,93.89c2.39,11.92,5.71,23.66,8.61,35.48l3.31,0,8.07-56.42h28.29c-.65,3.63-1.1,6.5-1.69,9.34-5.72,27.3-11.29,54.63-17.46,81.83-.62,2.7-4.84,6.38-7.57,6.53-27.18,1.51-27,1.25-36.57-24.08-5-13.25-10.9-26.17-17-40.59-4.54,6-9.67,9.87-2.2,15.31a2.15,2.15,0,0,1,.83,1.78c-6,18.08,11.57,29.28,13.26,45.32,1.13,10.64,5.11,21,7.47,31.5,1.37,6.14,4.56,8,10.85,7.5,55.52-4,110.37,1.76,166,12.19-1.15-4.11-2.14-7.7-3.14-11.29l3.06.54c1.67-6.24,3.29-12.48,5-18.7a48.1,48.1,0,0,1,2.58-7.56c1.57-3.3,3.52-6.4,5.31-9.59l-1.81-3.09-16.75,7c-7.32-6.74,1.15-11.7,4.22-18.46,2.13,1.5,3.65,2.6,5.21,3.66,7.38,5,11.92,3,13.77-5.44,1.42-6.45,3.78-12.69,5.56-19.06a9.14,9.14,0,0,0,.31-5c-3.57-10.19-7.39-20.3-10.43-28.55-7.48,0-13.51.63-19.34-.16-7.44-1-10.31.83-10.58,8.91-.67,20.45-2.37,40.86-3.76,62.92L443.59,173c3.5-23.67,7-47,10.59-71.63H431.81V73.58l63,3.63c.5-5.86-6.86-14,4.51-17.8l4.51,10.23,20.42-9.5-1.52-.87c3.66-3.92,6.81-10.29,11.11-11.19,6.76-1.41,12.31,9.47,12.94,24.85,4.5-4.41,9-7.23,11.18-11.29C564.75,49,573.05,44,583.91,47.55c8.76,2.85,14.85,13.11,13,21.9C594.43,81.33,585.41,86.9,570.23,85.18Zm-256.34,123c-.95-14,1.37-27.33-9.77-37.64C293.21,183,289,183.13,278.21,171.58c-9.48,12.55-5.13,26.42-5.86,41Zm62.92,37.35,2-4.1c.75-3.79,1.21-7.67,2.31-11.36,1.79-6,.25-10.41-5.95-11.71-4.14-.86-8.62-.16-12.86-.16V242.4l1.87.18,4.05-8.15,3.61-2.54Zm46-1.55c-2.5-7.17-4.77-14.44-7.74-21.4-.5-1.17-5.64-1.95-6-1.36-4.06,6.91-7.61,14.12-11.3,21.25l2,2.33C407.52,234.29,414.62,238.53,422.82,243.94ZM238.74,257.63c-7.4-9.23-13-16.26-18.67-23.28L217,235.64,212.13,263C223.46,252.78,223.46,252.78,238.74,257.63Zm280,3.68c-1-9.37.85-19.11-6.62-28.14L496,255.62C505.53,251.48,512.76,251.15,518.75,261.31Zm42-184c-9.86,1.82-14,7.59-13.21,16.81a50.19,50.19,0,0,1-.1,5.2c2.1-.07,5.06.73,6.17-.35,4.75-4.65,9-9.84,13.51-15ZM252.41,228.82l-3.59.77c.93,7.71-1,16.88,7.7,21.49,3.11,1.65,10.86-.36,13.21-3.3,5.72-7.13.35-14.5-2.74-21.52-1.27,4.59,0,9-.31,13.35-.19,2.8-2.65,5.45-4.1,8.16-2.37-1.84-5.77-3.22-6.87-5.63C253.85,238.05,253.43,233.29,252.41,228.82Zm38.79,13.74.42,4.22c5-.9,12.59-.07,14.51-3,8.93-13.49-9.67-9-12.38-16.57l11.18-2.1c-5.52-4.24-11.92-5.61-14.78.63-5.81,12.72,10.35,7.72,13.87,15.71ZM597.45,130.42c.57-8.22-.53-14.52-8.63-12.59-3.47.83-5.8,6.44-8.65,9.88l2.46,2.71Zm-263,114,5.64-25.76L323.76,220l-2.21,2.53C338.44,223.63,327.62,237.35,334.43,244.41Zm105.21,3,17.47,1.44.21-3L445.8,243c.34-6.92.66-13.4,1-19.88l-3.53-.21C442.13,230.44,441,238,439.64,247.37Zm43.27-18.49-4.37-.69-4.47,23.92,4.36.68Q480.67,240.83,482.91,228.88Z"/><path d="M61.21,178.34,48,183.57c-4.45,1.77-8.89,3.56-13.27,5.31-12.75-18.84-9.56-36.42,8.42-47.51,29-17.86,50.7-11.28,68.39,19.76,0-6.32-1.71-14.31.4-21.11,3.15-10.09,6.93-21.42,14.11-28.56C145.57,92,171.35,101,178.27,129.69l-23.53,6.84c-1.1-1-1.81-1.37-2.06-1.93-2.57-5.79-3.79-13.94-12.52-12.2s-4.95,9.93-5.61,15.47c-1.49,12.52,5.61,22.26,11.79,32,1.45,2.3,5.92,4.36,8.46,3.85s6.28-4.9,5.88-6.83c-2.47-11.82,5.19-13.56,13.64-15.23,4.67-.92,9.23-2.36,13.77-3.55,7.09,18.34-.14,38.64-16.44,46.94-20.84,10.61-38,4.09-56.33-20.87l9.85,30.29C111,216.19,96.72,228.23,78,232.07c-23,4.71-36.78-5.49-32.19-26,1.64-7.34,8.59-13.49,13-20.24,1.33-2,2.34-4.26,3.5-6.4C68,176,74.18,173.06,78.81,168.59c.85-.82-3.57-9.64-7.31-11.88s-10-1.89-14.24-.33c-2,.71-3.07,7.31-2.35,10.78C55.73,171.15,59,174.64,61.21,178.34ZM82.4,183.5c-5.05,6.29-8.78,10-11,14.4-.55,1.09,3.78,4.63,5.87,7,4.22-3.66,8.7-7.09,12.35-11.25C90.07,193.15,86.26,188.88,82.4,183.5Z"/><path d="M655.79,201.12c8.6-11.65,7.9-15.6-2.5-21.57-4.45-2.55-9-5-13.31-7.74-11.87-7.49-13.73-14.6-8.6-32.13,3.42-11.68,11-18.15,23.74-16.44,10.22,1.38,21.27,4.23,29.67,9.82,18.71,12.45,18.88,19.9,7.34,40.94l-26.69-11.85c.74-4.82,2.56-9.15,1.59-12.74-.86-3.2-4.41-6.54-7.59-7.86-1.32-.54-6.13,3.62-7,6.36-1.63,5.43-1.89,10.88,4.75,14.79,7,4.12,13,9.93,19.61,14.8s14.16,9.57,12.34,19.33c-2.24,12.06-8.36,21.92-20.76,25.74a29.28,29.28,0,0,1-15.1.31c-21.8-5.52-38.63-22.71-28.66-48.79,6.72,2.86,13.19,6.75,20.18,8.31C655.05,184.67,650.46,195,655.79,201.12Z"/><path d="M421.5,76.48v93.23H390.13q1.61-47.77,3.21-95.79Z"/><path d="M271.87,60.28C271.61,71,262.41,80,252,79.83A19.87,19.87,0,0,1,232.47,60a19.25,19.25,0,0,1,19.75-19.34C263.06,40.74,272.13,49.82,271.87,60.28Z"/><path d="M407.44,66.37c-10.6-.64-14.3-5.32-13.72-17.32.57-11.6,7.66-19.16,17.33-18.49,7.49.53,14.07,7.62,13.88,15C424.56,59.48,418.24,67,407.44,66.37Z"/><path class="cls-1" d="M313.89,208.14l-41.54,4.42c.73-14.56-3.62-28.43,5.86-41,10.82,11.55,15,11.45,25.91-1.08C315.26,180.81,312.94,194.17,313.89,208.14Z"/><path class="cls-1" d="M376.81,245.49l-5-13.6-3.61,2.54-4.05,8.15-1.87-.18V218.16c4.24,0,8.72-.7,12.86.16,6.2,1.3,7.74,5.73,5.95,11.71-1.1,3.69-1.56,7.57-2.31,11.36Z"/><path class="cls-1" d="M422.82,243.94c-8.2-5.41-15.3-9.65-23.06.82l-2-2.33c3.69-7.13,7.24-14.34,11.3-21.25.34-.59,5.48.19,6,1.36C418.05,229.5,420.32,236.77,422.82,243.94Z"/><path class="cls-1" d="M238.74,257.63c-15.28-4.85-15.28-4.85-26.61,5.4L217,235.64l3.06-1.29C225.71,241.37,231.34,248.4,238.74,257.63Z"/><path class="cls-1" d="M518.75,261.31c-6-10.16-13.22-9.83-22.74-5.69l16.12-22.45C519.6,242.2,517.8,251.94,518.75,261.31Z"/><path class="cls-1" d="M560.72,77.31,567.09,84c-4.55,5.16-8.76,10.35-13.51,15-1.11,1.08-4.07.28-6.17.35a50.19,50.19,0,0,0,.1-5.2C546.76,84.9,550.86,79.13,560.72,77.31Z"/><path class="cls-1" d="M252.41,228.82c1,4.47,1.44,9.23,3.3,13.32,1.1,2.41,4.5,3.79,6.87,5.63,1.45-2.71,3.91-5.36,4.1-8.16.3-4.33-1-8.76.31-13.35,3.09,7,8.46,14.39,2.74,21.52-2.35,2.94-10.1,4.95-13.21,3.3-8.67-4.61-6.77-13.78-7.7-21.49Z"/><path class="cls-1" d="M291.2,242.56,304,241.48c-3.52-8-19.68-3-13.87-15.71,2.86-6.24,9.26-4.87,14.78-.63l-11.18,2.1c2.71,7.57,21.31,3.08,12.38,16.57-1.92,2.9-9.52,2.07-14.51,3Z"/><path class="cls-1" d="M597.45,130.42H582.63l-2.46-2.71c2.85-3.44,5.18-9,8.65-9.88C596.92,115.9,598,122.2,597.45,130.42Z"/><path class="cls-1" d="M334.43,244.41c-6.81-7.06,4-20.78-12.88-21.9l2.21-2.53,16.31-1.33Z"/><path class="cls-1" d="M439.64,247.37c1.39-9.42,2.49-16.93,3.6-24.44l3.53.21c-.31,6.48-.63,13-1,19.88l11.52,2.83-.21,3Z"/><path class="cls-1" d="M482.91,228.88q-2.24,12-4.48,23.91l-4.36-.68,4.47-23.92Z"/><path class="cls-1" d="M61.21,178.34c-2.21-3.7-5.48-7.19-6.3-11.18-.72-3.47.39-10.07,2.35-10.78,4.28-1.56,10.59-1.87,14.24.33s8.16,11.06,7.31,11.88C74.18,173.06,68,176,62.37,179.38Z"/><path class="cls-1" d="M82.4,183.5c3.86,5.38,7.67,9.65,7.2,10.19-3.65,4.16-8.13,7.59-12.35,11.25-2.09-2.41-6.42-5.95-5.87-7C73.62,193.47,77.35,189.79,82.4,183.5Z"/></g></g></svg>