<svg xmlns="http://www.w3.org/2000/svg" viewBox="0 0 712.18 299.77"><defs><style>.cls-1{fill:#fff;}</style></defs><g id="Layer_2" data-name="Layer 2"><g id="Layer_1-2" data-name="Layer 1"><path class="cls-1" d="M568.79,220.06c3.22,12.35-2.42,19.46-9.93,26.34-2.62,2.4-3.93,7.47-3.83,11.28.12,5,1.92,10.06,3.53,14.93,5.09,15.39-9.37,28.61-24.81,24.44-24.84-6.72-49.95-12.67-75.23-17.43-87.09-16.4-173.07-9.16-258.15,13.61-7.3,1.95-14.56,4.06-21.91,5.77-16.2,3.77-27.25-6.67-24.42-22.95a42,42,0,0,1,1.93-8c4.12-10.66,2.71-18.77-6.93-26.85-4.92-4.12-5.49-13.37-8.94-22.81-3.46-1.62-8.54-.13-14.22,4.85-16.41,14.4-34.42,26.17-56.94,28.94-20.86,2.57-37.34-6.57-45.55-25.82Q14.16,204.8,5.52,183c-17.22-43.51,7.16-79.48,54.56-80.2,8.83-.14,17.68,1.32,27.26,2.1,4.16-5.07,8.75-11.42,14.1-17.06C114.52,74,130.76,71.38,149.4,72c13.53.44,28.09-2.71,40.53-8.08,7.13-3.08,13.15-13.09,15.77-21.23,4.86-15.07,13.34-25.56,28.42-29.5,16.24-4.24,28.7,3,38.55,15.62,1.43,1.84,2.75,3.77,5.12,7C283.35,20.83,287,4.3,307.71,9s30.63,14.5,33.36,32.88h20.07C365.91,31.38,369,20.79,375,12.29,388.74-7.1,417.73-3.06,429.41,21c3.57,7.33,6,15.2,9.14,23.33,6.28.49,12.79,1.61,19.22,1.25,3.45-.2,7.79-2.11,9.92-4.71,7.24-8.89,15.72-12.67,27.15-10,2,.46,5.11-.77,6.73-2.26,14.89-13.74,23.24-14.24,40.49-2,22.39-12.81,36.93-11.71,51.81,3.68,9.51,9.84,12,21.55,8.16,34.14-1.92,6.19-.41,9,4.52,12.42,11.71,8.18,27.84,14.7,41.94,15.82a70.36,70.36,0,0,1,61.92,49.62c4.43,14.47-.21,27.65-5.61,40.79-1.38,3.35-2.89,7-2.89,10.52,0,21.65-10.95,37-29.66,45.49s-37.9,4.56-52.76-9.15c-10-9.21-18.45-15.45-32.49-10.09C582.26,221.59,576.23,220.06,568.79,220.06ZM90.52,114.36c-19.13-9-37.42-7.81-55.62-.14C7,126-2.13,146.57,8.51,174.82c6.11,16.22,13.13,32.08,19.7,48.12,7.51,18.31,21.27,26.1,40.85,23.12,23.11-3.52,41-16.53,58.07-31.27,2-1.69,4.9-3.21,7.36-3.17,6.39.1,12.76,1.12,19.12,1.77-3,8.36-10.87,18.21-.6,24.9,13.59,8.85,12.57,19.26,8.33,31.66a49.77,49.77,0,0,0-2.16,9c-1.46,9.79,5.68,16.67,15.46,14.87,3.36-.63,6.61-1.83,9.92-2.76,81.88-23.05,165-33.64,249.71-21C468.15,275,501.51,283.67,535,291c13.54,2.94,20.79-3.9,17.52-17.32-1.46-6-3.81-11.87-4.32-17.92-.31-3.65,1-8.71,3.54-11.11,14.44-13.7,14.62-13.49,6.06-32a37,37,0,0,1-1.27-4.81c17.68,8.73,34.06,9,49.95-.48,2.6,3.78,4.55,7,6.87,9.92,12.87,16.2,36.66,23.74,54.52,17.39,17.41-6.19,27.48-22.73,27.63-44.67,0-2.75,1.6-5.67,3-8.2,16.13-28.77,3.61-57.4-17.36-71.37-18.06-12-37.46-16.73-55.82-8.61L591.64,72.54c9.13-15.65,7.89-30.65-4.27-41.47-12.8-11.38-27.69-10.29-42.78,1.34-9.79-3.27-18.25-8.92-25.69-7.8s-13.68,9-21.07,14.42c-13.41-7.38-18.72-5.4-29.5,11.83-20.88,2.37-39,2.53-43.78-24.92-2.62-15.12-16-21.62-29.44-19.85-12.87,1.69-23.1,13.22-24.46,28-.42,4.63-.06,9.34-.06,13.6-14.31,3.08-32.16-8.22-39.53,13.66l-5.12-9.83c12.82-13.18,10.3-25.35-6.63-32.54a108.53,108.53,0,0,0-12.61-4.47c-8.86-2.52-15.47.89-18.81,9.62-3.7,9.68-7.15,19.45-10.92,29.11-.61,1.56-2.32,2.69-4.38,5V48.67c0-13.57-7.8-24.75-20.31-29.16s-27.06-1.22-33.94,10.16c-6.71,11.12-10.6,23.94-20,33.5-2.76,2.8-5.57,7-8.88,7.56-16.83,3-32.74,8.74-50.92,7.29C114.61,76.12,99.52,91.84,90.52,114.36Z"/><path class="cls-1" d="M561.74,73.09c2.37,11.91-7.51,15.82-13.56,21.32-5,4.55-6.78,8.13-5.26,14.82.83,3.62-2.55,8-3,12.14s.57,8.26,1.12,14.6c6.18-13.5,10.33-24.62,16.17-34.76,6.46-11.21,16.63-17.68,30.23-14.43,14.06,3.37,24.95,11.94,26.81,26.48,1.12,8.67-2.91,18-4.7,27.41-10.61-2.53-18.85-4.54-27.12-6.46-11.05-2.58-16.31,2.29-14.47,13.62.41,2.56,1.82,5,2.71,7.29,1.27,0,2.22.28,2.56-.05,3.22-3.13,6.39-9.12,9.47-9.06,8.37.16,16.76,2.63,25,4.79,1.4.37,3.08,4,2.78,5.77-2.18,13.05-8,24.21-20.5,30-11.9,5.46-22,.4-32.31-6.25-12.71-8.19-15.53-20.06-15.83-36-2.79,5.44-4.43,8.69-6.12,11.91-1.1,2.1-2.33,6-3.42,6-14.69-.34-14.83,15.29-23.67,21.56-4,2.83-5.26,11.31-5.33,17.26s3.28,10.54,11.13,11.88c12.35,2.1,24.34,6.31,40,10.59-24,9.56-30.27,24.39-17.07,47.8-120.07-34.67-236.65-35-354.88-.58.94-4.7,1.37-7.86,2.21-10.9C189.34,243,187.29,238,172,228.73c-2.16-1.31-4.19-2.84-9-6.15,25.85-6.06,48.73-11.43,71.61-16.78,1-.24,2-.26,3.05-.46,17.83-3.48,17.63-4.05,18.16-21.79.49-16.18,2.59-32.32,4-48.47.65-7.52,1.52-15,1.94-22.55.29-5.19-13.18-15-20.42-14.63-5.37.24-10.71,1.32-17.69,2.23l10,65.11-31.15,6C199.65,149.07,197,128,194.16,106l-22.64,6.52c-1.51-7.78-2.89-14.88-4.53-23.29,9.56-2.27,18.68-5.08,28-6.48,10.57-1.6,19.13-4.19,17-17.17,10.83-2.91,23.41,2.11,29.92,10.51a26.86,26.86,0,0,0,28.49,9.89c5.79-1.54,10.34-10.17,14-16.44,5.43-9.23,9.85-19.08,14.15-28.9,2-4.5,2.63-9.58,4.4-16.38L327.79,36c-8.82,3.28-16.62,3.85-19.37,7.86-2.63,3.85,0,11.26.3,17.29,12.65,1.5,15.74,5.21,18.83,20.75,2.37,11.89,5.72,23.6,8.63,35.38l3.3-.09c2.65-18.58,5.3-37.16,8-56.49H376c-1,4.86-1.85,8.7-2.66,12.55-5.46,26-11.11,51.88-16.21,77.91-1,5.25-2.29,8.45-8.22,7.58a8.86,8.86,0,0,0-1,0c-8.86-.21-19.72,2.6-26-1.53-5.71-3.76-6.26-15.11-9.42-23-5.23-13-10.74-25.85-16.91-40.65l-6.85,10,2.38.12c.62,4.79,1.25,9.57,1.86,14.36.42,3.32-.28,7.4,1.41,9.83,11.58,16.69,16.3,35.49,19.19,55.19.81,5.57,1.28,13,11.33,12.26,55.85-4.2,111,1.66,167.06,12.13-1.18-3.93-2.16-7.23-3.37-11.29,7.66-4.09,9.76-10.71,7.82-19.28-.42-1.87,1.88-4.4,3-6.57,1.69-3.25,3.47-6.45,5.21-9.67l-1.86-3-16.6,7.26c-7.67-7.08,1.85-11.78,3.52-19.32,3.17,2.45,4.84,4,6.74,5.14,6.46,3.89,10.9,1.82,12.69-5.35,1.68-6.75,3.93-13.36,5.76-20.07a9,9,0,0,0,.24-5C511.54,110,507.71,100,504.81,92.13c-7.42,0-13.17.79-18.61-.19-7.75-1.39-11.13-.08-11.41,8.81-.62,20.43-2.37,40.83-3.77,62.84l-35.86-2.82c3.52-23.74,7-47.1,10.53-71.15l-22.25-1V61.37l62,3.6c0-5-.31-9.89.22-14.71.12-1.13,3-1.95,5.3-3.29,1.69,4,3.1,7.31,4.5,10.61l17.45-8.28c5-6,7.6-12.27,11.75-13.53,6.84-2.08,13,9,13.82,25.09,4.48-4.52,9-7.43,11.16-11.56,6.6-12.5,15.21-17.53,26.06-13.88,8.76,2.94,14.72,13.19,12.8,22C585.89,69.24,577,74.66,561.74,73.09ZM270.34,159.6l-3.91.08c-1.16,13.07-2.32,26.14-3.63,40.82l41.69-4.5c2-20.24-.62-30.26-9.18-37C284.58,170.84,280.2,171,270.34,159.6ZM354,205.78V230.2h1.8l4.33-8.32,10.11,8.38c.75-4.62.78-8.45,2-11.81,2.68-7.13.39-11.31-6.81-12.57C361.86,205.25,358,205.78,354,205.78Zm60.33,26c-2.33-6.88-4.35-13.89-7.24-20.53-.64-1.47-6.14-2.64-6.41-2.19-4.06,6.89-7.62,14.08-11.3,21.2l2,2.34C399.13,222,406.22,226.48,414.34,231.77Zm-201.63-9-4.07.16q-2.32,13.2-4.63,26.42l2.55,2.87c3.72-15.53,13-10.24,23.37-6.79Zm274.68,20.47,1.36,3.72c9.36-10.78,15.39-5.41,23,1.45q-2.49-13-5-26.06l-3.42-.56ZM537.93,86.75c8.93,1.42,21.63-9.72,18.07-15-1.45-2.66-2.89-5.32-3.69-6.81C539.25,67.49,539.22,77.15,537.93,86.75Zm-276.5,127.1-4.67.48c.39,3.58,1.51,7.26,1,10.69-.58,3.7-2.7,7.16-4.15,10.73-2.4-2.75-5.4-5.19-7-8.33-1.73-3.3-2.17-7.27-3.17-10.95l-2.77.93c.73,8-1.32,17.41,8,21.8,3.12,1.46,11.84-1.14,12.24-3.08C262.34,229,261.43,221.32,261.43,213.85Zm20.11,16.35c5.42,6.33,12.21,6.48,15.56,2.1,10.71-14-9.3-9.66-11.74-17.28l11.21-2c-5.63-4.24-12.05-5.64-14.88.64-5.7,12.63,10.44,7.66,13.95,15.83ZM588.9,118.43c.67-7.76.47-13.75-8.07-13.15s-7.66,6.52-6.86,13.15ZM334.84,209l-.93-2.7-18.6,1.55c13.37,4.24,4.69,17.06,10.24,24.3C332.2,225.11,321,212.21,334.84,209Zm113.61,28.08.67-3.14-11.89-3.35c.49-6.84.94-13.16,1.39-19.47l-3.64-.36c-1.18,7.6-2.37,15.2-3.75,24.09Zm26.12-20.34-4.41-.74q-2.27,12-4.54,23.9l4.29.76Z"/><path class="cls-1" d="M52.79,166.16,26.21,176.63c-12.69-18.77-9.5-36.36,8.47-47.44,29-17.87,50.71-11.29,68.4,19.75,0-6.32-1.72-14.3.4-21.1,3.15-10.1,6.93-21.43,14.11-28.57,19.55-19.45,45.34-10.5,52.26,18.24l-23.53,6.83c-1.11-1-1.81-1.36-2.06-1.92-2.57-5.79-3.8-13.94-12.53-12.21s-4.94,9.94-5.6,15.48c-1.5,12.51,5.61,22.26,11.79,32,1.45,2.3,5.92,4.36,8.46,3.84s6.28-4.89,5.87-6.82c-2.46-11.82,5.2-13.56,13.65-15.23,4.67-.93,9.24-2.37,13.77-3.56,7.09,18.35-.15,38.64-16.44,46.95-20.84,10.61-38,4.08-56.34-20.87,3.24,9.94,6.47,19.88,9.86,30.29-14.2,11.7-28.45,23.74-47.13,27.57-23,4.72-36.78-5.48-32.19-26,1.64-7.34,8.59-13.49,13-20.25,1.33-2,2.34-4.25,3.5-6.39,5.64-3.43,11.8-6.32,16.44-10.8.85-.82-3.58-9.63-7.31-11.87s-10-1.89-14.25-.33c-1.95.7-3.07,7.3-2.35,10.78C47.3,159,50.58,162.45,52.79,166.16Zm21.71,5.12c-5.3,6.2-9.19,9.76-11.53,14.14-.61,1.15,3.57,4.84,5.55,7.36,4.31-3.57,8.92-6.87,12.64-11C81.71,181.2,78.09,176.84,74.5,171.28Z"/><path class="cls-1" d="M646,191.13c10-14.06,9.24-17.84-1.23-23.83-4.46-2.55-9-5-13.3-7.76-11.75-7.39-13.62-14.69-8.44-32.19,3.34-11.29,10.72-17.93,22.82-16.25,10.85,1.51,22.22,4.89,31.56,10.44,16.65,9.9,18,22.7,6.29,40-5.8-2.39-11.77-4.75-17.64-7.33-3.08-1.36-6-3.13-8.94-4.71.68-4.51,2.51-8.86,1.52-12.44-.89-3.18-4.51-6.47-7.72-7.73-1.32-.52-6,3.72-6.86,6.5-1.67,5.48-1.64,10.89,4.89,14.75,6.71,4,12.46,9.52,18.77,14.2,6.87,5.09,15,9.65,13,19.95-2.39,12.45-8.65,22.74-21.84,25.79a34.46,34.46,0,0,1-18-1.12c-21-7.1-33.72-23.29-24.61-47.58C628.51,168.49,645.92,167.62,646,191.13Z"/><path class="cls-1" d="M384.9,61.76l28.16,2.5v93.26H381.78C382.81,125.83,383.85,93.76,384.9,61.76Z"/><path class="cls-1" d="M263.47,47.49c.13,10.6-8.82,19.94-19.32,20.16A20,20,0,0,1,224,48.38a19.27,19.27,0,0,1,19.15-19.94C254,28.24,263.34,37,263.47,47.49Z"/><path class="cls-1" d="M385.26,37.75c.2-11.59,7-19.57,16.49-19.4,8,.14,15,7.33,14.76,15.13-.48,13.33-6.8,21.29-16.65,21C389.23,54.15,385.07,49.38,385.26,37.75Z"/></g></g></svg>