<svg xmlns="http://www.w3.org/2000/svg" viewBox="0 0 282.05 282.05"><defs><style>.cls-1{fill:#b691bc;}.cls-1,.cls-2,.cls-3,.cls-4,.cls-5,.cls-6{stroke:#fff;stroke-miterlimit:10;stroke-width:5px;}.cls-2{fill:#a370a7;}.cls-3{fill:#7a408f;}.cls-4{fill:#b9a0c6;}.cls-5{fill:#973f8c;}.cls-6{fill:#d3d2e6;}</style></defs><g id="Layer_2" data-name="Layer 2"><g id="Layer_1-2" data-name="Layer 1"><path class="cls-1" d="M132.43,129.07,278.35,98.78a1,1,0,0,1,1.2,1v45a1,1,0,0,1-.29.71L239.76,185a1,1,0,0,1-1.16.19L132.18,130.94A1,1,0,0,1,132.43,129.07Z"/><path class="cls-2" d="M130.67,127.75l62-114.31a1,1,0,0,1,1.58-.23l84,84a1,1,0,0,1-.5,1.69l-146,30.3A1,1,0,0,1,130.67,127.75Z"/><path class="cls-3" d="M185.51,185.51l-51.4-51.4a1,1,0,0,1,1.16-1.6l100.27,51.11a1,1,0,0,1-.46,1.89Z"/><path class="cls-4" d="M128.7,128.7,4.21,4.21A1,1,0,0,1,5,2.5L191.7,12.18a1,1,0,0,1,.83,1.48L130.28,128.47A1,1,0,0,1,128.7,128.7Z"/><path class="cls-2" d="M98.78,278.35l30.29-145.92a1,1,0,0,1,1.87-.25L185.18,238.6a1,1,0,0,1-.19,1.16l-39.49,39.5a1,1,0,0,1-.71.29h-45A1,1,0,0,1,98.78,278.35Z"/><path class="cls-4" d="M97.22,278.24l-84-84a1,1,0,0,1,.23-1.58l114.31-62a1,1,0,0,1,1.46,1.08l-30.3,146A1,1,0,0,1,97.22,278.24Z"/><path class="cls-5" d="M12.18,191.7,2.5,5a1,1,0,0,1,1.71-.76L128.7,128.7a1,1,0,0,1-.23,1.58L13.66,192.53A1,1,0,0,1,12.18,191.7Z"/><path class="cls-6" d="M183.62,235.54,132.51,135.27a1,1,0,0,1,1.6-1.16l51.4,51.4v49.57A1,1,0,0,1,183.62,235.54Z"/></g></g></svg>