<svg xmlns="http://www.w3.org/2000/svg" viewBox="0 0 282.05 282.05"><defs><style>.cls-1{fill:#edaa62;}.cls-1,.cls-2,.cls-3,.cls-4,.cls-5,.cls-6{stroke:#fff;stroke-miterlimit:10;stroke-width:5px;}.cls-2{fill:#de6942;}.cls-3{fill:#b64b3a;}.cls-4{fill:#efb35d;}.cls-5{fill:#db5540;}.cls-6{fill:#f7ce83;}</style></defs><g id="Layer_2" data-name="Layer 2"><g id="Layer_1-2" data-name="Layer 1"><path class="cls-1" d="M129.07,149.62,98.78,3.7a1,1,0,0,1,1-1.2h45a1.05,1.05,0,0,1,.71.29L185,42.29a1,1,0,0,1,.19,1.16L130.94,149.87A1,1,0,0,1,129.07,149.62Z"/><path class="cls-2" d="M127.75,151.38l-114.31-62a1,1,0,0,1-.23-1.59l84-84a1,1,0,0,1,1.69.5l30.3,146A1,1,0,0,1,127.75,151.38Z"/><path class="cls-3" d="M185.51,96.55l-51.4,51.39a1,1,0,0,1-1.6-1.16L183.62,46.52a1,1,0,0,1,1.89.45Z"/><path class="cls-4" d="M128.7,153.35,4.21,277.85a1,1,0,0,1-1.71-.76L12.18,90.35a1,1,0,0,1,1.48-.83l114.81,62.25A1,1,0,0,1,128.7,153.35Z"/><path class="cls-2" d="M278.35,183.27,132.43,153a1,1,0,0,1-.25-1.87L238.6,96.88a1,1,0,0,1,1.16.18l39.5,39.5a1,1,0,0,1,.29.7v45A1,1,0,0,1,278.35,183.27Z"/><path class="cls-4" d="M278.24,184.83l-84,84a1,1,0,0,1-1.58-.23l-62-114.31a1,1,0,0,1,1.08-1.46l146,30.3A1,1,0,0,1,278.24,184.83Z"/><path class="cls-5" d="M191.7,269.87,5,279.55a1,1,0,0,1-.76-1.7L128.7,153.35a1,1,0,0,1,1.58.23l62.25,114.81A1,1,0,0,1,191.7,269.87Z"/><path class="cls-6" d="M235.54,98.44l-100.27,51.1a1,1,0,0,1-1.16-1.6l51.4-51.39h49.57A1,1,0,0,1,235.54,98.44Z"/></g></g></svg>