<svg xmlns="http://www.w3.org/2000/svg" viewBox="0 0 282.05 282.05"><defs><style>.cls-1{fill:#72b65e;}.cls-1,.cls-2,.cls-3,.cls-4,.cls-5,.cls-6{stroke:#fff;stroke-miterlimit:10;stroke-width:5px;}.cls-2{fill:#84bd76;}.cls-3{fill:#4e7d45;}.cls-4{fill:#9ac56d;}.cls-5{fill:#619a53;}.cls-6{fill:#bed8a2;}</style></defs><g id="Layer_2" data-name="Layer 2"><g id="Layer_1-2" data-name="Layer 1"><path class="cls-1" d="M153,132.43l30.29,145.92a1,1,0,0,1-1,1.2h-45a1,1,0,0,1-.7-.29l-39.5-39.5a1,1,0,0,1-.18-1.16l54.23-106.42A1,1,0,0,1,153,132.43Z"/><path class="cls-2" d="M154.3,130.67l114.31,62a1,1,0,0,1,.23,1.58l-84,84a1,1,0,0,1-1.69-.5l-30.3-146A1,1,0,0,1,154.3,130.67Z"/><path class="cls-3" d="M96.55,185.51l51.39-51.4a1,1,0,0,1,1.6,1.16L98.44,235.54a1,1,0,0,1-1.89-.46Z"/><path class="cls-4" d="M153.35,128.7,277.85,4.21a1,1,0,0,1,1.7.76L269.87,191.7a1,1,0,0,1-1.48.83L153.58,130.28A1,1,0,0,1,153.35,128.7Z"/><path class="cls-2" d="M3.7,98.78l145.92,30.29a1,1,0,0,1,.25,1.87L43.45,185.18a1,1,0,0,1-1.16-.19L2.79,145.5a1.05,1.05,0,0,1-.29-.71v-45A1,1,0,0,1,3.7,98.78Z"/><path class="cls-4" d="M3.81,97.22l84-84a1,1,0,0,1,1.59.23l62,114.31a1,1,0,0,1-1.08,1.46l-146-30.3A1,1,0,0,1,3.81,97.22Z"/><path class="cls-5" d="M90.35,12.18,277.09,2.5a1,1,0,0,1,.76,1.71L153.35,128.7a1,1,0,0,1-1.58-.23L89.52,13.66A1,1,0,0,1,90.35,12.18Z"/><path class="cls-6" d="M46.52,183.62l100.26-51.11a1,1,0,0,1,1.16,1.6l-51.39,51.4H47A1,1,0,0,1,46.52,183.62Z"/></g></g></svg>