<svg xmlns="http://www.w3.org/2000/svg" viewBox="0 0 281.05 281.05"><defs><style>.cls-1{fill:#74a3d3;}.cls-1,.cls-2,.cls-3,.cls-4,.cls-5,.cls-6{stroke:#fff;stroke-miterlimit:10;stroke-width:4px;}.cls-2{fill:#4395d4;}.cls-3{fill:#35569f;}.cls-4{fill:#8bcde7;}.cls-5{fill:#2c6caf;}.cls-6{fill:#bfe2f5;}</style></defs><g id="Layer_2" data-name="Layer 2"><g id="Layer_1-2" data-name="Layer 1"><path class="cls-1" d="M149.12,152.48,3.2,182.77a1,1,0,0,1-1.2-1v-45a1,1,0,0,1,.29-.7l39.5-39.5A1,1,0,0,1,43,96.38l106.42,54.23A1,1,0,0,1,149.12,152.48Z"/><path class="cls-2" d="M150.88,153.8l-62,114.31a1,1,0,0,1-1.59.23l-84-84a1,1,0,0,1,.5-1.69l146-30.3A1,1,0,0,1,150.88,153.8Z"/><path class="cls-3" d="M96.05,96.05l51.39,51.39a1,1,0,0,1-1.16,1.6L46,97.94a1,1,0,0,1,.45-1.89Z"/><path class="cls-4" d="M152.85,152.85l124.5,124.5a1,1,0,0,1-.76,1.7L89.85,269.37a1,1,0,0,1-.83-1.48l62.25-114.81A1,1,0,0,1,152.85,152.85Z"/><path class="cls-2" d="M182.77,3.2,152.48,149.12a1,1,0,0,1-1.87.25L96.38,43a1,1,0,0,1,.18-1.16l39.5-39.5a1,1,0,0,1,.7-.29h45A1,1,0,0,1,182.77,3.2Z"/><path class="cls-4" d="M184.33,3.31l84,84a1,1,0,0,1-.23,1.59l-114.31,62a1,1,0,0,1-1.46-1.08l30.3-146A1,1,0,0,1,184.33,3.31Z"/><path class="cls-5" d="M269.37,89.85l9.68,186.74a1,1,0,0,1-1.7.76l-124.5-124.5a1,1,0,0,1,.23-1.58L267.89,89A1,1,0,0,1,269.37,89.85Z"/><path class="cls-6" d="M97.94,46,149,146.28a1,1,0,0,1-1.6,1.16L96.05,96.05V46.47A1,1,0,0,1,97.94,46Z"/></g></g></svg>