<svg xmlns="http://www.w3.org/2000/svg" viewBox="0 0 282.05 282.05"><defs><style>.cls-1{fill:none;stroke:#000;stroke-miterlimit:10;stroke-width:5px;}</style></defs><g id="Layer_2" data-name="Layer 2"><g id="Layer_1-2" data-name="Layer 1"><path class="cls-1" d="M149.62,153,3.7,183.27a1,1,0,0,1-1.2-1v-45a1,1,0,0,1,.29-.7l39.5-39.5a1,1,0,0,1,1.16-.18l106.42,54.23A1,1,0,0,1,149.62,153Z"/><path class="cls-1" d="M151.38,154.3l-62,114.31a1,1,0,0,1-1.59.23l-84-84a1,1,0,0,1,.5-1.69l146-30.3A1,1,0,0,1,151.38,154.3Z"/><path class="cls-1" d="M96.55,96.55l51.39,51.39a1,1,0,0,1-1.16,1.6L46.52,98.44A1,1,0,0,1,47,96.55Z"/><path class="cls-1" d="M153.35,153.35l124.5,124.5a1,1,0,0,1-.76,1.7L90.35,269.87a1,1,0,0,1-.83-1.48l62.25-114.81A1,1,0,0,1,153.35,153.35Z"/><path class="cls-1" d="M183.27,3.7,153,149.62a1,1,0,0,1-1.87.25L96.88,43.45a1,1,0,0,1,.18-1.16l39.5-39.5a1,1,0,0,1,.7-.29h45A1,1,0,0,1,183.27,3.7Z"/><path class="cls-1" d="M184.83,3.81l84,84a1,1,0,0,1-.23,1.59l-114.31,62a1,1,0,0,1-1.46-1.08l30.3-146A1,1,0,0,1,184.83,3.81Z"/><path class="cls-1" d="M269.87,90.35l9.68,186.74a1,1,0,0,1-1.7.76l-124.5-124.5a1,1,0,0,1,.23-1.58L268.39,89.52A1,1,0,0,1,269.87,90.35Z"/><path class="cls-1" d="M98.44,46.52l51.1,100.26a1,1,0,0,1-1.6,1.16L96.55,96.55V47A1,1,0,0,1,98.44,46.52Z"/></g></g></svg>