<svg xmlns="http://www.w3.org/2000/svg" viewBox="0 0 564.01 564.72"><defs><style>.cls-1{fill:#edaa62;}.cls-1,.cls-10,.cls-11,.cls-12,.cls-13,.cls-14,.cls-15,.cls-16,.cls-17,.cls-18,.cls-19,.cls-2,.cls-20,.cls-21,.cls-22,.cls-23,.cls-24,.cls-3,.cls-4,.cls-5,.cls-6,.cls-7,.cls-8,.cls-9{stroke:#fff;stroke-miterlimit:10;}.cls-1,.cls-10,.cls-11,.cls-12,.cls-13,.cls-14,.cls-15,.cls-16,.cls-17,.cls-18,.cls-2,.cls-3,.cls-4,.cls-5,.cls-6,.cls-7,.cls-8,.cls-9{stroke-width:5px;}.cls-2{fill:#de6942;}.cls-3{fill:#b64b3a;}.cls-4{fill:#efb35d;}.cls-5{fill:#db5540;}.cls-6{fill:#f7ce83;}.cls-7{fill:#72b65e;}.cls-8{fill:#84bd76;}.cls-9{fill:#4e7d45;}.cls-10{fill:#9ac56d;}.cls-11{fill:#619a53;}.cls-12{fill:#bed8a2;}.cls-13{fill:#b691bc;}.cls-14{fill:#a370a7;}.cls-15{fill:#7a408f;}.cls-16{fill:#b9a0c6;}.cls-17{fill:#973f8c;}.cls-18{fill:#d3d2e6;}.cls-19{fill:#74a3d3;}.cls-19,.cls-20,.cls-21,.cls-22,.cls-23,.cls-24{stroke-width:4px;}.cls-20{fill:#4395d4;}.cls-21{fill:#35569f;}.cls-22{fill:#8bcde7;}.cls-23{fill:#2c6caf;}.cls-24{fill:#bfe2f5;}</style></defs><g id="Layer_2" data-name="Layer 2"><g id="Layer_1-2" data-name="Layer 1"><path class="cls-1" d="M410.91,149.62,380.63,3.7a1,1,0,0,1,1-1.2h45a1,1,0,0,1,.71.29l39.5,39.5a1,1,0,0,1,.18,1.16L412.78,149.87A1,1,0,0,1,410.91,149.62Z"/><path class="cls-2" d="M409.6,151.38l-114.31-62a1,1,0,0,1-.23-1.59l84-84a1,1,0,0,1,1.68.5l30.3,146A1,1,0,0,1,409.6,151.38Z"/><path class="cls-3" d="M467.35,96.55,416,147.94a1,1,0,0,1-1.6-1.16l51.1-100.26a1,1,0,0,1,1.89.45Z"/><path class="cls-4" d="M410.54,153.35,286.05,277.85a1,1,0,0,1-1.7-.76L294,90.35a1,1,0,0,1,1.47-.83l114.81,62.25A1,1,0,0,1,410.54,153.35Z"/><path class="cls-2" d="M560.19,183.27,414.28,153a1,1,0,0,1-.26-1.87L520.44,96.88a1,1,0,0,1,1.17.18l39.49,39.5a1,1,0,0,1,.3.7v45A1,1,0,0,1,560.19,183.27Z"/><path class="cls-4" d="M560.09,184.83l-84,84a1,1,0,0,1-1.59-.23l-62-114.31a1,1,0,0,1,1.08-1.46l146,30.3A1,1,0,0,1,560.09,184.83Z"/><path class="cls-5" d="M473.55,269.87l-186.74,9.68a1,1,0,0,1-.76-1.7l124.49-124.5a1,1,0,0,1,1.59.23l62.24,114.81A1,1,0,0,1,473.55,269.87Z"/><path class="cls-6" d="M517.38,98.44l-100.26,51.1a1,1,0,0,1-1.16-1.6l51.39-51.39h49.58A1,1,0,0,1,517.38,98.44Z"/><path class="cls-7" d="M153,414.28l30.29,145.91a1,1,0,0,1-1,1.21h-45a1,1,0,0,1-.7-.3l-39.5-39.49a1,1,0,0,1-.18-1.17L151.11,414A1,1,0,0,1,153,414.28Z"/><path class="cls-8" d="M154.3,412.52l114.31,62a1,1,0,0,1,.23,1.59l-84,84a1,1,0,0,1-1.69-.51l-30.3-146A1,1,0,0,1,154.3,412.52Z"/><path class="cls-9" d="M96.55,467.35,147.94,416a1,1,0,0,1,1.6,1.16L98.44,517.38a1,1,0,0,1-1.89-.45Z"/><path class="cls-10" d="M153.35,410.54l124.5-124.49a1,1,0,0,1,1.7.76l-9.68,186.74a1,1,0,0,1-1.48.82L153.58,412.13A1,1,0,0,1,153.35,410.54Z"/><path class="cls-8" d="M3.7,380.63l145.92,30.28a1,1,0,0,1,.25,1.87L43.45,467a1,1,0,0,1-1.16-.18l-39.5-39.5a1,1,0,0,1-.29-.71v-45A1,1,0,0,1,3.7,380.63Z"/><path class="cls-10" d="M3.81,379.07l84-84a1,1,0,0,1,1.59.23l62,114.31a1,1,0,0,1-1.08,1.45l-146-30.3A1,1,0,0,1,3.81,379.07Z"/><path class="cls-11" d="M90.35,294l186.74-9.68a1,1,0,0,1,.76,1.7L153.35,410.54a1,1,0,0,1-1.58-.23L89.52,295.5A1,1,0,0,1,90.35,294Z"/><path class="cls-12" d="M46.52,465.46l100.26-51.1a1,1,0,0,1,1.16,1.6L96.55,467.35H47A1,1,0,0,1,46.52,465.46Z"/><path class="cls-13" d="M414.39,411.74l145.92-30.29a1,1,0,0,1,1.2,1v45a1,1,0,0,1-.29.7l-39.5,39.5a1,1,0,0,1-1.16.19L414.14,413.61A1,1,0,0,1,414.39,411.74Z"/><path class="cls-14" d="M412.63,410.42l62-114.31a1,1,0,0,1,1.58-.23l84,84a1,1,0,0,1-.5,1.69l-146,30.3A1,1,0,0,1,412.63,410.42Z"/><path class="cls-15" d="M467.47,468.18l-51.4-51.4a1,1,0,0,1,1.16-1.6l100.27,51.1a1,1,0,0,1-.46,1.9Z"/><path class="cls-16" d="M410.66,411.37,286.17,286.88a1,1,0,0,1,.76-1.71l186.73,9.68a1,1,0,0,1,.83,1.48L412.25,411.14A1,1,0,0,1,410.66,411.37Z"/><path class="cls-14" d="M380.74,561,411,415.1a1,1,0,0,1,1.87-.25l54.24,106.42a1,1,0,0,1-.19,1.16l-39.49,39.5a1,1,0,0,1-.71.29h-45A1,1,0,0,1,380.74,561Z"/><path class="cls-16" d="M379.18,560.91l-84-84a1,1,0,0,1,.23-1.58l114.3-62a1,1,0,0,1,1.46,1.08l-30.3,146A1,1,0,0,1,379.18,560.91Z"/><path class="cls-17" d="M294.15,474.37l-9.69-186.74a1,1,0,0,1,1.71-.75L410.66,411.37a1,1,0,0,1-.23,1.58L295.62,475.2A1,1,0,0,1,294.15,474.37Z"/><path class="cls-18" d="M465.58,518.21l-51.1-100.27a1,1,0,0,1,1.59-1.16l51.4,51.4v49.57A1,1,0,0,1,465.58,518.21Z"/><path class="cls-19" d="M149.42,153,3.5,183.32a1,1,0,0,1-1.2-1v-45a1,1,0,0,1,.29-.71l39.5-39.5a1,1,0,0,1,1.16-.18l106.42,54.24A1,1,0,0,1,149.42,153Z"/><path class="cls-20" d="M151.18,154.35l-62,114.31a1,1,0,0,1-1.59.23l-84-84a1,1,0,0,1,.5-1.68l146-30.3A1,1,0,0,1,151.18,154.35Z"/><path class="cls-21" d="M96.35,96.6,147.74,148a1,1,0,0,1-1.16,1.6L46.32,98.49a1,1,0,0,1,.45-1.89Z"/><path class="cls-22" d="M153.16,153.41,277.65,277.9a1,1,0,0,1-.76,1.71L90.15,269.92a1,1,0,0,1-.83-1.47l62.25-114.81A1,1,0,0,1,153.16,153.41Z"/><path class="cls-20" d="M183.07,3.76,152.79,149.67a1,1,0,0,1-1.87.26L96.68,43.51a1,1,0,0,1,.18-1.16l39.5-39.5a1,1,0,0,1,.71-.3h45A1,1,0,0,1,183.07,3.76Z"/><path class="cls-22" d="M184.63,3.86l84,84a1,1,0,0,1-.23,1.59l-114.31,62a1,1,0,0,1-1.45-1.08l30.29-146A1,1,0,0,1,184.63,3.86Z"/><path class="cls-23" d="M269.67,90.4l9.68,186.74a1,1,0,0,1-1.7.76L153.16,153.41a1,1,0,0,1,.23-1.59l114.8-62.24A1,1,0,0,1,269.67,90.4Z"/><path class="cls-24" d="M98.24,46.57l51.1,100.26a1,1,0,0,1-1.6,1.16L96.35,96.6V47A1,1,0,0,1,98.24,46.57Z"/></g></g></svg>